<svg width="200" height="200" viewBox="0 0 200 200" version="1.1">
<g transform="translate(-23.480187,-66.98018)">
<path style="fill:#ffffff;fill-opacity:1;stroke:none;stroke-width:0.276951" d="m 33.820845,67.311679 c -5.453121,0 -9.843411,4.399265 -9.843411,9.863546 V 219.82477 c 0,5.46428 4.39029,9.86355 9.843411,9.86355 H 176.17916 c 5.45312,0 9.84341,-4.39927 9.84341,-9.86355 V 77.175225 c 0,-5.464281 -4.39029,-9.863546 -9.84341,-9.863546 z" id="path68"/>
<path id="rect24" style="fill:#000000;stroke-width:0.221537" d="m 104.9998,76.566186 -15.383044,7.166802 v 6.280535 h 2.09015 V 105.5008 h -2.902131 v -2.16371 H 86.06074 v 9.0137 h 3.998286 l -8.222371,98.43846 H 70.214749 v 9.64457 h 69.570501 v -9.64457 h -11.62231 l -8.22237,-98.43846 h 3.99828 v -9.0137 h -2.74443 v 2.16371 h -2.90173 V 90.013523 h 2.09015 V 83.732988 Z M 94.122578,90.231049 H 115.87742 V 105.68692 H 94.122578 Z M 110.7829,186.27634 h 8.74782 v 23.39988 h -8.74782 z"/>
<path id="rect61" style="fill:#000000;fill-opacity:1;stroke:none;stroke-width:0.278367" d="m 33.384008,66.98018 c -5.486587,0 -9.903821,4.417229 -9.903821,9.903821 V 220.116 c 0,5.48659 4.417234,9.90382 9.903821,9.90382 H 176.616 c 5.48658,0 9.90381,-4.41723 9.90381,-9.90382 V 76.884001 c 0,-5.486591 -4.41723,-9.903821 -9.90381,-9.903821 z m 0.812478,3.393057 H 175.80351 c 4.05704,0 7.32326,3.266222 7.32326,7.323243 v 141.60704 c 0,4.05703 -3.26622,7.32324 -7.32326,7.32324 H 34.196486 c -4.057009,0 -7.323236,-3.26621 -7.323236,-7.32324 V 77.69648 c 0,-4.057021 3.266227,-7.323242 7.323236,-7.323243 z"/>
</g>
</svg>